<svg width="128" height="19" viewBox="0 0 128 19" xmlns="http://www.w3.org/2000/svg">
  <path d="M7.77 1.686C6.97.698 5.747.066 4.375.066 1.958.067 0 2.027 0 4.443c0 1.718.99 3.204 2.43 3.92-.03-.242-.044-.49-.044-.74 0-3.098 2.363-5.645 5.385-5.936zm6.66 4.37C13.53 4.247 11.66 3 9.5 3 6.462 3 4 5.462 4 8.5c0 1.724.793 3.263 2.035 4.27C6.4 8.97 9.605 6 13.5 6c.315 0 .625.02.93.057zM13.5 19c3.038 0 5.5-2.462 5.5-5.5S16.538 8 13.5 8 8 10.462 8 13.5s2.462 5.5 5.5 5.5z" fill="#E84B88"/>
  <path d="M35.408 16c4.576 0 7.656-3.014 7.656-7.348 0-4.29-3.08-7.326-7.678-7.326H29.93V16h5.478zm-.022-2.266h-2.882V3.592h2.904c3.256 0 5.016 2.244 5.016 5.06 0 2.794-1.848 5.082-5.038 5.082zM47.794 16V8.762c.462-.77 1.76-1.43 2.75-1.43.286 0 .506.022.704.066V5.11c-1.364 0-2.64.792-3.454 1.804v-1.54h-2.31V16h2.31zM62.6 16V5.374h-2.31v7.458c-.528.704-1.54 1.386-2.706 1.386-1.32 0-2.156-.528-2.156-2.178V5.374h-2.31v7.524c0 2.156 1.144 3.366 3.432 3.366 1.672 0 2.992-.836 3.74-1.672V16h2.31zm5.302-3.19V8.586c.528-.792 1.65-1.43 2.75-1.43 1.826 0 2.992 1.474 2.992 3.52 0 2.068-1.166 3.542-2.992 3.542-1.1 0-2.222-.616-2.75-1.408zm0 3.19v-1.452c.814 1.056 2.046 1.716 3.41 1.716 2.728 0 4.73-2.068 4.73-5.588 0-3.432-1.98-5.566-4.73-5.566-1.32 0-2.552.594-3.41 1.738V1.326h-2.31V16h2.31zm12.782-3.19V8.586c.528-.792 1.65-1.43 2.75-1.43 1.826 0 2.992 1.474 2.992 3.52 0 2.068-1.166 3.542-2.992 3.542-1.1 0-2.222-.616-2.75-1.408zm0 3.19v-1.452c.814 1.056 2.046 1.716 3.41 1.716 2.728 0 4.73-2.068 4.73-5.588 0-3.432-1.98-5.566-4.73-5.566-1.32 0-2.552.594-3.41 1.738V1.326h-2.31V16h2.31zm12.782-3.19V8.586c.528-.792 1.65-1.43 2.75-1.43 1.826 0 2.992 1.474 2.992 3.52 0 2.068-1.166 3.542-2.992 3.542-1.1 0-2.222-.616-2.75-1.408zm0 3.19v-1.452c.814 1.056 2.046 1.716 3.41 1.716 2.728 0 4.73-2.068 4.73-5.588 0-3.432-1.98-5.566-4.73-5.566-1.32 0-2.552.594-3.41 1.738V1.326h-2.31V16h2.31zm12.782 0V1.326h-2.31V16h2.31zm7.92.264c1.672 0 3.234-.55 4.312-1.562l-1.056-1.518c-.77.77-1.98 1.188-3.036 1.188-2.002 0-3.19-1.342-3.366-2.926h8.184v-.572c0-3.344-2.024-5.764-5.214-5.764-3.146 0-5.39 2.486-5.39 5.566 0 3.366 2.354 5.588 5.566 5.588zm2.816-6.468H111c.088-1.276 1.012-2.794 2.97-2.794 2.09 0 2.948 1.54 3.014 2.794zm6.82 6.204V8.762c.462-.77 1.76-1.43 2.75-1.43.286 0 .506.022.704.066V5.11c-1.364 0-2.64.792-3.454 1.804v-1.54h-2.31V16h2.31z" fill="#222"/>
</svg>
